<?xml version="1.0" standalone="no"?>
<!DOCTYPE svg PUBLIC "-//W3C//DTD SVG 20010904//EN"
 "http://www.w3.org/TR/2001/REC-SVG-20010904/DTD/svg10.dtd">
<svg version="1.0" xmlns="http://www.w3.org/2000/svg"
 width="500.000000pt" height="500.000000pt" viewBox="0 0 500.000000 500.000000"
 preserveAspectRatio="xMidYMid meet">

<g transform="translate(0.000000,500.000000) scale(0.100000,-0.100000)"
fill="#000000" stroke="none">
<path d="M2405 4978 c-33 -5 -71 -11 -85 -13 -14 -2 -72 -13 -130 -25 -58 -12
-125 -26 -150 -31 -49 -9 -153 -28 -185 -34 -23 -4 -111 -23 -175 -37 -25 -6
-56 -10 -69 -10 l-24 0 7 -116 c11 -167 25 -349 32 -405 9 -72 1 -91 -53 -118
-27 -13 -69 -39 -95 -57 -27 -19 -48 -30 -48 -25 0 4 -4 3 -8 -2 -4 -6 -40
-35 -81 -64 -65 -47 -78 -52 -109 -47 -19 3 -38 9 -41 13 -3 5 -17 14 -31 21
-24 13 -73 40 -175 97 -123 70 -219 115 -246 115 -18 0 -34 -8 -44 -22 -9 -13
-37 -53 -63 -89 -26 -37 -53 -75 -59 -85 -7 -11 -47 -68 -88 -129 -41 -60 -78
-117 -82 -125 -4 -8 -11 -19 -15 -25 -5 -5 -26 -37 -48 -70 -22 -33 -44 -67
-50 -75 -83 -124 -83 -126 -28 -181 58 -59 313 -280 344 -299 34 -21 46 -71
29 -120 -12 -34 -26 -94 -40 -175 -2 -11 -8 -58 -15 -105 -6 -46 -12 -85 -13
-85 -1 -1 -56 -16 -122 -34 -66 -18 -133 -37 -150 -42 -16 -5 -84 -25 -150
-44 -66 -20 -123 -39 -127 -43 -9 -9 13 -170 46 -332 14 -69 33 -163 41 -210
17 -90 30 -153 45 -210 5 -19 12 -60 16 -90 4 -30 11 -58 17 -62 12 -8 83 -4
355 17 117 9 216 13 222 10 5 -3 15 -18 23 -33 59 -111 129 -219 194 -296 40
-48 41 -69 7 -120 -28 -40 -75 -122 -139 -241 -76 -140 -95 -180 -95 -195 0
-23 102 -97 470 -340 232 -153 275 -180 288 -180 19 0 81 60 138 134 90 117
239 281 260 285 22 4 139 -15 209 -34 28 -7 83 -16 123 -20 40 -4 79 -13 86
-20 12 -12 66 -173 133 -395 14 -47 29 -93 34 -102 5 -10 9 -25 9 -33 0 -14
11 -15 73 -10 39 4 97 11 127 17 30 5 62 10 70 10 8 0 29 4 47 9 17 6 71 17
120 25 275 46 447 84 466 103 19 19 14 109 -29 531 l-5 56 108 64 c59 35 141
90 182 122 76 60 102 68 136 44 20 -13 108 -62 211 -117 28 -15 68 -38 90 -51
58 -37 148 -78 171 -78 11 0 27 8 35 18 36 40 377 541 450 660 48 78 45 99
-16 145 -24 17 -108 89 -187 158 -79 69 -156 133 -171 143 -38 25 -42 61 -18
149 11 41 25 108 30 149 21 157 23 163 50 166 14 2 34 7 45 12 11 5 56 16 99
25 44 10 98 25 121 35 22 10 61 21 85 25 64 10 162 45 184 66 19 18 19 23 7
126 -8 59 -17 119 -22 132 -5 13 -16 62 -24 110 -9 48 -18 98 -21 111 -2 14
-13 68 -23 120 -47 235 -54 266 -75 289 -23 26 -8 26 -341 -1 -66 -5 -152 -12
-192 -14 l-72 -6 -28 52 c-42 76 -123 200 -165 252 -21 25 -38 50 -38 57 0 7
17 42 37 79 20 37 49 90 64 117 14 28 44 81 65 118 75 132 104 192 104 217 0
31 -21 47 -265 212 -93 63 -190 129 -215 146 -153 104 -236 152 -265 152 -36
0 -70 -32 -224 -215 -188 -224 -192 -227 -220 -222 -14 3 -61 14 -103 26 -79
22 -198 43 -233 42 -46 -2 -63 8 -68 41 -2 18 -21 92 -42 163 -20 72 -41 144
-45 160 -47 175 -68 226 -93 224 -6 -1 -39 -6 -72 -11z m-227 -3252 c70 -37
118 -122 107 -192 -19 -132 -178 -203 -285 -129 -59 41 -83 93 -78 167 7 98
81 167 181 168 26 0 60 -6 75 -14z m976 -19 c107 -82 98 -238 -17 -308 -94
-56 -210 -18 -258 86 -39 83 -10 175 70 227 41 26 53 29 107 26 48 -3 69 -10
98 -31z"/>
</g>
</svg>
