<?xml version="1.0" standalone="no"?>
<!DOCTYPE svg PUBLIC "-//W3C//DTD SVG 20010904//EN"
 "http://www.w3.org/TR/2001/REC-SVG-20010904/DTD/svg10.dtd">
<svg version="1.0" xmlns="http://www.w3.org/2000/svg"
 width="480.000000pt" height="480.000000pt" viewBox="0 0 480.000000 480.000000"
 preserveAspectRatio="xMidYMid meet">

<g transform="translate(0.000000,480.000000) scale(0.100000,-0.100000)"
fill="#000000" stroke="none">
<path d="M2665 4566 l-120 -113 -105 -6 c-64 -3 -143 -16 -203 -31 -72 -19
-103 -24 -117 -16 -27 14 -34 12 -20 -5 8 -9 8 -15 2 -15 -6 0 -26 26 -46 58
-46 77 -132 157 -203 190 -49 23 -71 27 -144 27 -78 0 -92 -4 -155 -35 -47
-24 -94 -60 -146 -111 -65 -65 -84 -92 -132 -190 -62 -129 -106 -277 -136
-462 -21 -136 -40 -365 -40 -503 l0 -91 -79 -164 c-83 -171 -111 -247 -136
-364 -42 -197 7 -353 159 -514 141 -148 164 -208 120 -305 -22 -49 -26 -67
-21 -113 l6 -54 -45 -31 c-24 -18 -42 -34 -39 -36 2 -3 25 3 50 13 26 9 49 15
52 12 10 -11 -27 -114 -57 -155 -41 -57 -95 -89 -235 -138 -250 -88 -327 -130
-393 -217 -129 -168 -156 -362 -75 -535 21 -44 141 -190 165 -200 4 -2 -4 22
-18 53 -32 69 -42 166 -24 230 13 47 92 146 105 133 4 -4 -7 -35 -24 -69 -24
-48 -31 -75 -31 -121 0 -68 14 -99 64 -147 21 -21 34 -41 31 -50 -2 -9 -11
-65 -20 -125 -8 -60 -17 -111 -19 -113 -2 -3 -14 0 -25 7 -30 15 -26 -4 4 -24
22 -15 24 -21 18 -59 -3 -23 -19 -72 -34 -109 l-28 -68 1986 0 1986 0 -5 168
-5 167 48 52 c58 65 73 106 66 190 -4 55 -3 62 10 51 27 -22 55 -91 60 -148 6
-67 -8 -118 -49 -176 -17 -23 -28 -49 -26 -58 2 -13 15 -10 78 21 l75 38 3
311 2 311 -88 84 c-58 55 -125 106 -196 147 -134 80 -165 107 -204 179 -37 71
-55 132 -84 293 -21 114 -22 155 -22 465 0 392 13 538 89 1005 46 283 58 431
52 630 -5 153 -10 202 -31 285 -54 210 -148 343 -289 411 -66 31 -79 34 -167
34 -52 0 -124 -7 -160 -15 -36 -9 -105 -20 -155 -25 -107 -10 -177 -25 -216
-45 -15 -8 -30 -15 -33 -15 -3 0 -6 19 -8 43 -3 41 -4 42 -38 41 -19 -1 -71
-19 -115 -40 -44 -21 -83 -40 -87 -42 -3 -2 -9 47 -13 108 -5 72 -12 113 -20
116 -6 3 -47 -11 -90 -31 -42 -19 -81 -35 -85 -35 -4 0 -10 29 -14 65 -8 75
-14 95 -30 95 -6 0 -65 -51 -131 -114z m135 44 c0 -19 9 -98 21 -175 11 -77
21 -152 22 -167 1 -16 4 -28 7 -28 3 0 96 44 205 99 l200 99 7 -92 c4 -50 12
-136 18 -191 5 -55 10 -117 10 -137 0 -21 4 -38 9 -38 23 0 197 67 300 116 63
30 115 54 116 54 4 0 -33 -173 -55 -259 -11 -44 -32 -107 -46 -140 -22 -49
-30 -60 -56 -65 -53 -10 -167 -7 -276 10 -230 34 -428 123 -569 257 -104 98
-223 293 -223 364 0 35 11 49 199 250 99 107 110 111 111 43z m210 -157 l0
-108 -70 -38 c-39 -21 -70 -37 -70 -35 -1 2 -7 50 -14 108 -7 58 -13 106 -12
106 6 7 144 73 154 74 9 0 12 -28 12 -107z m470 -270 l0 -108 -77 -33 c-41
-18 -77 -31 -79 -29 -2 1 -4 43 -6 91 l-3 89 80 49 c44 26 81 48 83 48 1 0 2
-48 2 -107z m-695 -620 c12 -96 37 -210 61 -281 13 -40 24 -74 24 -77 0 -2
-28 9 -62 24 -111 50 -198 66 -353 66 -129 0 -144 -2 -190 -25 -53 -27 -76
-58 -34 -46 164 46 426 28 604 -42 43 -17 59 -32 110 -103 37 -51 83 -100 121
-128 l61 -46 12 -90 12 -90 -103 -107 c-57 -59 -123 -132 -148 -162 -25 -30
-50 -55 -56 -56 -7 0 -117 36 -245 81 -477 164 -675 204 -894 182 -55 -5 -101
-9 -103 -8 -1 1 46 39 105 85 160 124 329 299 506 525 87 110 167 212 180 227
19 24 47 34 197 72 96 25 178 45 182 45 4 1 10 -20 13 -46z m-565 -237 c0 -2
-8 -10 -17 -17 -16 -13 -17 -12 -4 4 13 16 21 21 21 13z m-66 -53 c-5 -15 -3
-15 10 1 9 11 16 16 16 12 0 -12 -102 -144 -152 -197 -24 -25 -42 -43 -40 -41
1 3 -4 15 -12 26 -8 13 -10 29 -6 42 11 29 111 116 126 110 8 -3 13 -2 12 2
-3 15 15 42 24 36 5 -3 4 -13 -4 -22 -12 -15 -11 -16 4 -3 10 7 15 17 12 22
-3 5 -2 14 1 19 10 16 15 12 9 -7z m1360 -407 c70 -29 106 -112 87 -205 -14
-71 -50 -148 -91 -194 l-32 -37 -29 37 c-25 34 -28 44 -23 88 5 43 2 56 -20
88 -32 47 -28 66 22 107 42 35 86 40 102 11 24 -46 0 -176 -45 -245 -29 -44
-9 -41 23 3 37 51 67 157 59 207 -7 42 -42 84 -69 84 -35 0 -96 -39 -125 -80
-15 -22 -31 -40 -34 -40 -4 0 -12 27 -18 61 -14 70 -11 77 52 108 49 24 94 27
141 7z m-338 -258 c16 -77 18 -157 3 -195 -16 -44 -55 -78 -170 -150 -59 -36
-126 -83 -149 -105 -24 -21 -44 -38 -46 -38 -2 0 -4 19 -4 43 0 58 26 153 55
202 25 44 284 319 292 311 3 -3 11 -33 19 -68z m220 -19 l5 -44 -26 48 c-14
26 -23 52 -19 58 12 20 35 -17 40 -62z m-1410 26 c57 -9 161 -31 231 -51 133
-36 593 -183 605 -194 4 -3 -4 -37 -17 -75 -19 -53 -25 -89 -24 -145 1 -57 -4
-86 -21 -124 -21 -45 -21 -60 -5 -112 6 -18 -3 -25 -62 -52 -149 -68 -364
-143 -495 -172 -251 -57 -476 18 -600 198 -47 68 -29 81 37 27 67 -54 130 -87
210 -110 81 -24 279 -16 384 15 86 25 281 106 296 122 6 7 7 9 0 7 -5 -2 -57
-23 -115 -46 -200 -79 -269 -96 -415 -96 -148 -1 -195 12 -301 83 -107 71
-109 73 -94 109 23 56 -2 114 -84 197 -39 39 -84 80 -100 92 -18 14 -31 36
-37 63 -11 49 -1 69 96 181 74 87 96 94 294 97 62 0 160 -6 217 -14z m903
-781 c53 -20 108 -42 122 -50 49 -25 89 -65 89 -89 0 -12 -33 -68 -75 -125
-41 -56 -75 -106 -75 -111 0 -5 -33 -9 -72 -9 -250 -1 -508 -281 -508 -551 l0
-48 -52 -16 c-28 -8 -63 -15 -76 -15 -24 0 -126 67 -119 79 68 126 83 193 91
396 7 158 0 243 -25 344 -3 10 20 19 81 32 123 27 310 93 420 148 52 26 97 48
99 49 2 1 47 -14 100 -34z m-812 -200 c-3 -3 -12 -4 -19 -1 -8 3 -5 6 6 6 11
1 17 -2 13 -5z m-297 -156 c-77 -52 -149 -136 -196 -229 -50 -100 -67 -177
-62 -277 4 -75 3 -81 -9 -58 -21 39 -27 145 -13 207 33 145 156 320 262 373
79 40 89 31 18 -16z m1766 -13 c14 -96 3 -119 -165 -339 -113 -149 -211 -264
-284 -335 -122 -118 -306 -47 -307 119 0 80 63 187 134 225 35 19 35 19 58 -2
49 -47 117 -68 215 -68 78 0 96 3 120 21 34 26 46 62 15 45 -58 -31 -132 -1
-132 52 1 63 58 129 190 221 58 41 112 81 119 90 21 25 29 19 37 -29z m-1366
-4 c0 -22 3 -48 6 -58 4 -10 -7 1 -25 24 -17 24 -31 47 -31 52 0 8 16 16 43
20 4 0 7 -17 7 -38z m615 -89 c-174 -92 -315 -307 -315 -482 0 -99 50 -223
101 -250 11 -7 18 -14 16 -17 -8 -8 -60 23 -89 54 -100 105 -94 318 13 483 59
92 144 171 229 214 97 48 137 47 45 -2z m-724 -8 c63 -32 82 -125 54 -257 -38
-181 -149 -306 -273 -307 -88 0 -131 47 -140 155 -11 137 82 323 197 396 52
33 114 38 162 13z"/>
<path d="M2327 3015 c-38 -26 -49 -42 -22 -31 18 6 18 7 4 -32 -9 -27 -19 -33
-82 -52 -104 -30 -108 -34 -44 -38 57 -3 57 -3 51 -30 l-7 -27 26 24 c25 22
31 23 104 17 43 -4 94 -9 114 -12 l35 -6 10 -86 c6 -48 9 -89 7 -91 -6 -8
-149 21 -217 44 -76 25 -96 26 -48 1 59 -31 195 -59 288 -60 l92 -1 68 47 c38
25 99 63 136 83 38 20 70 40 73 45 3 4 -25 15 -63 23 -37 9 -137 32 -222 52
-85 19 -190 38 -232 42 -43 3 -78 7 -78 8 0 18 35 77 51 85 44 24 237 -28 462
-124 53 -23 46 -11 -10 18 -108 54 -348 126 -423 126 -21 0 -50 -10 -73 -25z
m233 -240 c11 -13 8 -15 -15 -15 -23 0 -26 2 -15 15 7 8 14 15 15 15 1 0 8 -7
15 -15z m250 11 c0 -2 -7 -6 -15 -10 -8 -3 -15 -1 -15 4 0 6 7 10 15 10 8 0
15 -2 15 -4z"/>
<path d="M2754 2615 c-9 -14 -15 -28 -12 -30 2 -2 12 9 22 25 21 36 13 40 -10
5z"/>
<path d="M2853 2628 c-6 -7 -16 -24 -22 -38 -12 -24 -12 -24 4 -5 20 24 37 55
32 55 -3 0 -9 -6 -14 -12z"/>
<path d="M2930 2612 c-21 -42 -22 -42 -16 -42 8 0 38 61 33 66 -2 2 -10 -8
-17 -24z"/>
<path d="M1589 2239 c189 -91 518 -103 894 -33 48 9 86 18 84 21 -3 2 -58 -5
-123 -16 -343 -59 -578 -55 -786 13 -40 13 -82 26 -93 30 -11 3 0 -3 24 -15z"/>
<path d="M1953 1284 c-99 -49 -189 -222 -169 -327 8 -44 41 -87 67 -87 58 0
138 70 186 163 34 68 45 202 19 242 -19 29 -55 32 -103 9z"/>
</g>
</svg>
