<?xml version="1.0" standalone="no"?>
<!DOCTYPE svg PUBLIC "-//W3C//DTD SVG 20010904//EN"
 "http://www.w3.org/TR/2001/REC-SVG-20010904/DTD/svg10.dtd">
<svg version="1.0" xmlns="http://www.w3.org/2000/svg"
 width="120.000000pt" height="120.000000pt" viewBox="0 0 120.000000 120.000000"
 preserveAspectRatio="xMidYMid meet">

<g transform="translate(0.000000,120.000000) scale(0.100000,-0.100000)"
fill="#000000" stroke="none">
<path d="M290 1190 c-102 -14 -224 -56 -259 -89 l-31 -29 0 -371 0 -372 26
-24 c32 -30 114 -61 214 -83 55 -12 131 -16 290 -16 228 0 330 14 440 62 89
39 85 18 88 411 2 222 -1 359 -7 382 -14 45 -70 78 -191 109 -72 19 -117 23
-295 25 -116 2 -239 0 -275 -5z m490 -70 c100 -21 158 -41 185 -62 l26 -20
-21 -23 c-101 -108 -748 -111 -884 -4 -14 11 -24 25 -20 30 18 30 154 74 274
89 86 11 370 5 440 -10z m-676 -195 c95 -40 226 -58 421 -59 164 0 204 3 295
23 58 13 118 30 133 38 15 7 32 11 37 8 6 -3 10 -31 10 -61 0 -40 -5 -59 -19
-73 -57 -57 -174 -83 -403 -89 -242 -6 -400 17 -480 71 -31 22 -33 26 -36 90
-2 37 -1 67 1 67 3 0 21 -7 41 -15z m146 -261 c196 -38 548 -20 688 35 28 11
53 17 56 14 3 -4 6 -31 6 -60 0 -68 -22 -92 -111 -121 -99 -33 -190 -44 -359
-44 -170 -1 -285 13 -370 44 -84 31 -100 50 -100 118 0 31 3 59 6 63 3 3 25
-3 47 -12 23 -10 85 -26 137 -37z m748 -240 c-3 -53 -6 -60 -36 -81 -79 -53
-218 -77 -442 -77 -157 1 -199 4 -280 24 -156 37 -180 56 -180 142 0 32 2 58
5 58 3 0 42 -11 89 -24 217 -63 603 -57 785 13 25 10 50 15 54 11 4 -4 7 -33
5 -66z"/>
</g>
</svg>
