<?xml version="1.0" standalone="no"?>
<!DOCTYPE svg PUBLIC "-//W3C//DTD SVG 20010904//EN"
 "http://www.w3.org/TR/2001/REC-SVG-20010904/DTD/svg10.dtd">
<svg version="1.0" xmlns="http://www.w3.org/2000/svg"
 width="120.000000pt" height="120.000000pt" viewBox="0 0 120.000000 120.000000"
 preserveAspectRatio="xMidYMid meet">

<g transform="translate(0.000000,120.000000) scale(0.100000,-0.100000)"
fill="#000000" stroke="none">
<path d="M363 1190 c-160 -20 -287 -63 -338 -114 l-25 -25 0 -391 0 -391 25
-25 c37 -37 123 -73 233 -97 141 -30 483 -30 624 0 110 24 196 60 233 97 l25
25 0 389 c0 448 6 418 -100 466 -103 46 -223 66 -425 71 -99 2 -212 0 -252 -5z
m474 -70 c96 -16 190 -48 220 -75 l28 -25 -28 -25 c-107 -95 -581 -125 -850
-53 -82 22 -142 55 -142 78 0 38 142 90 300 109 96 12 385 6 472 -9z m-696
-221 c100 -39 214 -53 429 -53 250 0 338 14 493 79 15 6 17 -1 17 -73 0 -75
-2 -82 -26 -101 -145 -114 -791 -118 -957 -7 -31 21 -32 24 -35 105 -3 77 -1
83 15 76 10 -4 39 -16 64 -26z m0 -240 c100 -39 214 -53 429 -53 250 0 338 14
493 79 15 6 17 -1 17 -73 0 -75 -2 -82 -26 -101 -145 -114 -791 -118 -957 -7
-31 21 -32 24 -35 105 -3 77 -1 83 15 76 10 -4 39 -16 64 -26z m0 -240 c100
-39 214 -53 429 -53 250 0 338 14 493 79 15 6 17 -1 17 -73 0 -75 -2 -82 -26
-101 -145 -114 -791 -118 -957 -7 -31 21 -32 24 -35 105 -3 77 -1 83 15 76 10
-4 39 -16 64 -26z"/>
</g>
</svg>
